<?xml version="1.0" encoding="utf-8"?>
<!-- Generator: Adobe Illustrator 23.0.3, SVG Export Plug-In . SVG Version: 6.00 Build 0)  -->
<svg version="1.1" id="Layer_1" xmlns="http://www.w3.org/2000/svg" xmlns:xlink="http://www.w3.org/1999/xlink" x="0px" y="0px"
	 viewBox="0 0 322.36 322.36" style="enable-background:new 0 0 322.36 322.36;" xml:space="preserve">
<style type="text/css">
	.st0{fill:#E6E6E6;stroke:#000000;stroke-width:3.1232;stroke-miterlimit:10;}
	.st1{fill:url(#SVGID_1_);stroke:#000000;stroke-width:3.1232;stroke-miterlimit:10;}
</style>
<g>
	<g>
		<g id="XMLID_5_">
			<path class="st0" d="M53.03,57.8c7.5-2.39,15.53-2.28,22.46-2c11.95,0.49,23.83,2.48,33.88,4.37c5.84,1.09,11.79,2.13,17.55,3.13
				c7.13,1.25,14.52,2.53,21.77,3.94l0.92,0.18c28.77,5.53,62.08,13.59,92.08,31.23c15.83,9.3,31.62,20.48,48.23,34.16
				c5.42,4.45,10.39,8.68,15.2,12.95c10.2,9.04,19.06,17.7,27.08,26.45c13.05,14.3,24.46,29.51,33.94,45.21
				c10.12,16.75,18.09,34.41,25.19,51c1.67,3.89,3.32,7.78,4.97,11.67c12.68,29.89,25.8,60.8,46.09,86.71
				c11.81,15.12,25.24,27.38,39.73,36.25c13.44,8.22,29.34,14.85,48.61,20.26c7.41,2.09,15.05,4,22.44,5.84
				c27.19,6.79,55.3,13.8,78.9,31.66c25.98,19.72,45.93,50.03,59,89.75c3.17,9.65,5.91,19.7,8.56,29.41
				c5.98,21.96,12.17,44.67,23.83,64.28c6.01,10.07,13.55,19.15,22.38,26.98c3.23,2.86,6.64,5.56,10.18,8.05
				c14.67,10.35,32.27,16.91,46.42,22.19l0.52,0.2l-0.85,3.74l-0.56-0.05c-33.42-3.14-67.96-9.21-94.22-32.26l-0.49-0.41
				c-19.78-17.57-33.22-40.73-46.21-63.13c-4.7-8.1-9.55-16.47-14.59-24.34c-10.75-16.83-21.05-29.36-32.4-39.42
				c-0.75-0.66-1.49-1.31-2.24-1.95c-12.72-10.77-28.1-19.95-45.71-27.29c-17.28-7.2-35.74-12.24-53.59-17.09
				c-16.78-4.59-34.14-9.31-50.68-15.88c-18.92-7.51-34.56-16.37-47.82-27.08c-1.81-1.47-3.61-3-5.37-4.55
				c-11.23-9.95-21.7-22.11-31.12-36.13c-16.54-24.66-28.34-52.32-39.76-79.07c-3.04-7.1-6.17-14.46-9.35-21.62
				c-13.74-31.12-31.31-66.86-57.37-96.03c-12.57-14.12-26.82-26.41-41.95-36.16c-17.17-11.07-35.8-19.5-50.09-25.61
				c-8.22-3.51-16.67-6.93-24.84-10.25c-7.86-3.18-15.97-6.45-23.95-9.85l0.03,0.03l-3.66-1.58c-17.98-7.75-35.46-15.59-51.55-26.13
				c-7.31-4.79-14.14-9.5-20.87-14.38c-3.2-2.33-5.85-4.69-7.78-6.93c-2.17-2.54-3.25-6.11-4.09-9.06l-0.01,0.01l-0.32-1.12
				c-1.57-5.5-0.38-10.98,3.24-15.07C46.9,60.64,49.75,58.84,53.03,57.8z"/>
			<path class="st0" d="M719.99,646.29"/>
			<path class="st0" d="M729.9,660.42"/>
		</g>
		
			<linearGradient id="SVGID_1_" gradientUnits="userSpaceOnUse" x1="4020.4226" y1="161.3275" x2="4164.3594" y2="103.1733" gradientTransform="matrix(0.7483 0.6634 -0.6634 0.7483 -2841.7913 -2716.322)">
			<stop  offset="0" style="stop-color:#0071BC"/>
			<stop  offset="0.0561" style="stop-color:#0574BD"/>
			<stop  offset="0.1265" style="stop-color:#157DC1"/>
			<stop  offset="0.2047" style="stop-color:#2F8BC8"/>
			<stop  offset="0.2883" style="stop-color:#529FD2"/>
			<stop  offset="0.3765" style="stop-color:#80B9DE"/>
			<stop  offset="0.4683" style="stop-color:#B9D8ED"/>
			<stop  offset="0.5616" style="stop-color:#FAFCFE"/>
			<stop  offset="0.5685" style="stop-color:#FFFFFF"/>
			<stop  offset="0.6769" style="stop-color:#FFB8B8"/>
			<stop  offset="0.8362" style="stop-color:#FF5656"/>
			<stop  offset="0.9475" style="stop-color:#FF1818"/>
			<stop  offset="1" style="stop-color:#FF0000"/>
		</linearGradient>
		<path class="st1" d="M224.25,148.49c7.62-3.4,13.46-9.98,14.44-18.29c0.8-6.81-1.75-13.69-5.92-19.22c-3.7-4.9-9-9.4-15.11-11.01
			c-6.84-1.81-12.41,2.54-18.84,3.73c-9.53,1.77-18.76-1.52-27.73-4.54c-8.31-2.8-16.31-5.71-22.56-12.08
			c-4.74-4.82-7.49-11.91-14.34-14.31c-2.8-0.98-5.18-0.67-7.95,0.02c-3.95,1-7.99,1.41-12.1,1.24c-6.52-0.27-12.39-2.67-18.54-4.64
			c-8.73-2.8-18.25-4.7-27.41-4.49c-3.22,0.07-7.44,0.32-9.81,2.73c-4.71,4.8-3.38,13.45,1.72,17.65c3.1,2.55,6.88,4.35,10.47,6.13
			c4.36,2.16,8.77,4.24,13.23,6.18c4.6,2,9.42,3.57,13.94,5.75c5.35,2.58,9.84,6.58,13.92,10.77c1.9,1.96,3.83,3.79,6.54,4.58
			c3.56,1.04,6.83,0.39,10.19-0.75c3.91-1.32,7.84-2.19,12.05-1.98c3.67,0.18,7.22,1.23,10.7,2.38c9.47,3.11,19.39,6.19,27.94,11.39
			c3.96,2.41,7.7,5.25,10.82,8.66c1.19,1.3,2.23,2.7,3.28,4.1c4.14,5.52,10.7,8.99,17.65,8.96
			C215.49,151.4,220.2,150.29,224.25,148.49z"/>
	</g>
</g>
</svg>
